<svg xmlns="http://www.w3.org/2000/svg" viewBox="0 0 192 192" width="192" height="192">
  <rect width="192" height="192" rx="24" fill="#0a0a0f"/>
  <circle cx="96" cy="96" r="72" fill="none" stroke="#f97316" stroke-width="4"/>
  <path d="M60 36 Q96 72 60 156" fill="none" stroke="#f97316" stroke-width="3.5" stroke-linecap="round"/>
  <path d="M132 36 Q96 72 132 156" fill="none" stroke="#f97316" stroke-width="3.5" stroke-linecap="round"/>
  <line x1="55" y1="52" x2="63" y2="56" stroke="#6b7280" stroke-width="2"/>
  <line x1="53" y1="68" x2="62" y2="70" stroke="#6b7280" stroke-width="2"/>
  <line x1="53" y1="84" x2="60" y2="84" stroke="#6b7280" stroke-width="2"/>
  <line x1="53" y1="100" x2="60" y2="100" stroke="#6b7280" stroke-width="2"/>
  <line x1="53" y1="116" x2="62" y2="114" stroke="#6b7280" stroke-width="2"/>
  <line x1="55" y1="132" x2="63" y2="128" stroke="#6b7280" stroke-width="2"/>
  <line x1="137" y1="52" x2="129" y2="56" stroke="#6b7280" stroke-width="2"/>
  <line x1="139" y1="68" x2="130" y2="70" stroke="#6b7280" stroke-width="2"/>
  <line x1="139" y1="84" x2="132" y2="84" stroke="#6b7280" stroke-width="2"/>
  <line x1="139" y1="100" x2="132" y2="100" stroke="#6b7280" stroke-width="2"/>
  <line x1="139" y1="116" x2="130" y2="114" stroke="#6b7280" stroke-width="2"/>
  <line x1="137" y1="132" x2="129" y2="128" stroke="#6b7280" stroke-width="2"/>
</svg>
